<?xml version="1.0" standalone="no"?>
<!DOCTYPE svg PUBLIC "-//W3C//DTD SVG 20010904//EN"
 "http://www.w3.org/TR/2001/REC-SVG-20010904/DTD/svg10.dtd">
<svg version="1.0" xmlns="http://www.w3.org/2000/svg"
 width="148.000000pt" height="148.000000pt" viewBox="0 0 148.000000 148.000000"
 preserveAspectRatio="xMidYMid meet">

<g transform="translate(0.000000,148.000000) scale(0.100000,-0.100000)"
fill="#000000" stroke="none">
<path d="M592 1097 c-101 -51 -122 -66 -120 -82 2 -14 37 -37 123 -82 66 -34
128 -62 138 -63 22 0 281 130 273 137 -3 3 -13 0 -21 -7 -20 -17 -67 2 -59 23
3 8 -2 17 -12 21 -12 5 -14 9 -5 20 8 10 5 16 -15 25 -14 6 -31 8 -37 5 -7 -4
-9 -3 -4 1 9 11 -89 65 -117 64 -12 0 -76 -28 -144 -62z m158 -10 c0 -11 -122
-77 -142 -77 -24 0 1 21 63 53 81 42 79 41 79 24z m65 -27 c6 -10 -124 -80
-149 -80 -36 0 -20 20 42 53 69 37 96 44 107 27z m31 -9 c-3 -5 3 -11 14 -14
11 -3 20 -9 20 -14 0 -11 -131 -73 -153 -73 -32 0 -17 20 34 48 29 15 59 35
68 45 16 18 26 23 17 8z"/>
<path d="M403 973 c-7 -3 -13 -14 -13 -26 0 -19 27 -36 165 -105 91 -45 175
-82 186 -82 11 0 92 36 179 81 142 72 182 100 165 117 -3 3 -5 0 -5 -6 0 -14
-37 -16 -42 -3 -1 6 -66 -21 -143 -59 -77 -39 -146 -70 -153 -70 -7 0 -83 35
-170 79 -86 43 -163 76 -169 74z m637 -42 c0 -11 -39 -41 -52 -41 -14 0 -8 23
10 36 20 16 42 18 42 5z"/>
<path d="M403 853 c-7 -3 -13 -14 -13 -26 0 -19 27 -36 165 -105 91 -45 175
-82 188 -82 12 1 94 38 182 83 128 65 161 87 163 105 5 36 -26 28 -188 -53
-111 -55 -157 -74 -173 -69 -12 4 -87 39 -167 79 -80 40 -151 70 -157 68z
m637 -43 c0 -10 -32 -30 -49 -30 -19 0 -12 17 12 28 28 14 37 14 37 2z"/>
<path d="M397 733 c-4 -3 -7 -15 -7 -25 0 -14 44 -40 175 -105 l175 -88 175
88 c137 68 175 91 175 106 0 11 -5 23 -11 27 -6 3 -81 -28 -166 -70 -85 -42
-162 -76 -173 -76 -10 0 -86 34 -169 75 -156 77 -163 80 -174 68z m639 -50
c-10 -10 -19 5 -10 18 6 11 8 11 12 0 2 -7 1 -15 -2 -18z m-26 -3 c0 -5 -18
-19 -40 -30 -30 -15 -40 -17 -40 -7 0 7 15 21 33 30 38 19 47 20 47 7z"/>
<path d="M390 595 c0 -22 18 -34 174 -112 l175 -87 175 87 c143 70 176 90 176
107 0 11 -6 23 -14 26 -7 3 -82 -29 -166 -70 -83 -42 -159 -76 -167 -76 -9 0
-84 34 -168 75 -84 41 -160 75 -169 75 -10 0 -16 -9 -16 -25z"/>
<path d="M680 340 c-10 -7 8 -10 60 -9 51 0 69 3 55 9 -27 12 -97 12 -115 0z"/>
</g>
</svg>
